<mxfile host="app.diagrams.net" agent="Mozilla/5.0 (Windows NT 10.0; Win64; x64) AppleWebKit/537.36 (KHTML, like Gecko) Chrome/133.0.0.0 Safari/537.36" version="26.0.16">
  <diagram name="Page-1" id="i7ImQxPpGs-lb5HzgOeP">
    <mxGraphModel dx="2021" dy="716" grid="1" gridSize="10" guides="1" tooltips="1" connect="1" arrows="1" fold="1" page="1" pageScale="1" pageWidth="827" pageHeight="1169" math="0" shadow="0">
      <root>
        <mxCell id="0" />
        <mxCell id="1" parent="0" />
        <mxCell id="d63WF_MDzuo1NfwLzAkS-2" value="" style="rounded=0;whiteSpace=wrap;html=1;" vertex="1" parent="1">
          <mxGeometry x="-10" y="60" width="810" height="100" as="geometry" />
        </mxCell>
        <mxCell id="d63WF_MDzuo1NfwLzAkS-5" value="EMPRUNTS" style="text;html=1;align=center;verticalAlign=middle;resizable=0;points=[];autosize=1;strokeColor=none;fillColor=none;" vertex="1" parent="1">
          <mxGeometry x="20" y="245" width="90" height="30" as="geometry" />
        </mxCell>
        <mxCell id="d63WF_MDzuo1NfwLzAkS-10" value="auteurs_id" style="text;html=1;align=center;verticalAlign=middle;resizable=0;points=[];autosize=1;strokeColor=none;fillColor=none;" vertex="1" parent="1">
          <mxGeometry x="230" y="70" width="80" height="30" as="geometry" />
        </mxCell>
        <mxCell id="d63WF_MDzuo1NfwLzAkS-11" value="Date de publication" style="text;html=1;align=center;verticalAlign=middle;resizable=0;points=[];autosize=1;strokeColor=none;fillColor=none;" vertex="1" parent="1">
          <mxGeometry x="450" y="70" width="130" height="30" as="geometry" />
        </mxCell>
        <mxCell id="d63WF_MDzuo1NfwLzAkS-13" value="Id (PK)" style="text;html=1;align=center;verticalAlign=middle;resizable=0;points=[];autosize=1;strokeColor=none;fillColor=none;" vertex="1" parent="1">
          <mxGeometry x="115" y="70" width="60" height="30" as="geometry" />
        </mxCell>
        <mxCell id="d63WF_MDzuo1NfwLzAkS-15" value="NomDuLivre_id(FK)" style="text;html=1;align=center;verticalAlign=middle;resizable=0;points=[];autosize=1;strokeColor=none;fillColor=none;" vertex="1" parent="1">
          <mxGeometry x="310" y="70" width="130" height="30" as="geometry" />
        </mxCell>
        <mxCell id="d63WF_MDzuo1NfwLzAkS-16" value="LIVRES" style="text;html=1;align=center;verticalAlign=middle;resizable=0;points=[];autosize=1;strokeColor=none;fillColor=none;" vertex="1" parent="1">
          <mxGeometry x="10" y="100" width="70" height="30" as="geometry" />
        </mxCell>
        <mxCell id="d63WF_MDzuo1NfwLzAkS-17" value="" style="rounded=0;whiteSpace=wrap;html=1;" vertex="1" parent="1">
          <mxGeometry x="-10" y="210" width="810" height="100" as="geometry" />
        </mxCell>
        <mxCell id="d63WF_MDzuo1NfwLzAkS-18" value="EMPRUNTS" style="text;html=1;align=center;verticalAlign=middle;resizable=0;points=[];autosize=1;strokeColor=none;fillColor=none;" vertex="1" parent="1">
          <mxGeometry x="10" y="245" width="90" height="30" as="geometry" />
        </mxCell>
        <mxCell id="d63WF_MDzuo1NfwLzAkS-19" value="categories_id" style="text;html=1;align=center;verticalAlign=middle;resizable=0;points=[];autosize=1;strokeColor=none;fillColor=none;" vertex="1" parent="1">
          <mxGeometry x="369" y="225" width="90" height="30" as="geometry" />
        </mxCell>
        <mxCell id="d63WF_MDzuo1NfwLzAkS-20" value="auteur_id" style="text;html=1;align=center;verticalAlign=middle;resizable=0;points=[];autosize=1;strokeColor=none;fillColor=none;" vertex="1" parent="1">
          <mxGeometry x="240" y="225" width="70" height="30" as="geometry" />
        </mxCell>
        <mxCell id="d63WF_MDzuo1NfwLzAkS-21" value="Id (PK)" style="text;html=1;align=center;verticalAlign=middle;resizable=0;points=[];autosize=1;strokeColor=none;fillColor=none;" vertex="1" parent="1">
          <mxGeometry x="125" y="225" width="60" height="30" as="geometry" />
        </mxCell>
        <mxCell id="d63WF_MDzuo1NfwLzAkS-24" value="" style="rounded=0;whiteSpace=wrap;html=1;" vertex="1" parent="1">
          <mxGeometry x="-10" y="346" width="810" height="100" as="geometry" />
        </mxCell>
        <mxCell id="d63WF_MDzuo1NfwLzAkS-25" value="AUTEURS_LIVRES" style="text;html=1;align=center;verticalAlign=middle;resizable=0;points=[];autosize=1;strokeColor=none;fillColor=none;" vertex="1" parent="1">
          <mxGeometry y="380" width="130" height="30" as="geometry" />
        </mxCell>
        <mxCell id="d63WF_MDzuo1NfwLzAkS-26" value="Id (PK)" style="text;html=1;align=center;verticalAlign=middle;resizable=0;points=[];autosize=1;strokeColor=none;fillColor=none;" vertex="1" parent="1">
          <mxGeometry x="145" y="360" width="60" height="30" as="geometry" />
        </mxCell>
        <mxCell id="d63WF_MDzuo1NfwLzAkS-28" value="NomDuLivre_id" style="text;html=1;align=center;verticalAlign=middle;resizable=0;points=[];autosize=1;strokeColor=none;fillColor=none;" vertex="1" parent="1">
          <mxGeometry x="235" y="360" width="110" height="30" as="geometry" />
        </mxCell>
        <mxCell id="d63WF_MDzuo1NfwLzAkS-29" value="categorie_id" style="text;html=1;align=center;verticalAlign=middle;resizable=0;points=[];autosize=1;strokeColor=none;fillColor=none;" vertex="1" parent="1">
          <mxGeometry x="390" y="360" width="90" height="30" as="geometry" />
        </mxCell>
        <mxCell id="d63WF_MDzuo1NfwLzAkS-30" value="" style="rounded=0;whiteSpace=wrap;html=1;" vertex="1" parent="1">
          <mxGeometry x="-10" y="480" width="810" height="100" as="geometry" />
        </mxCell>
        <mxCell id="d63WF_MDzuo1NfwLzAkS-31" value="CATEGORIES" style="text;html=1;align=center;verticalAlign=middle;resizable=0;points=[];autosize=1;strokeColor=none;fillColor=none;" vertex="1" parent="1">
          <mxGeometry y="485" width="100" height="30" as="geometry" />
        </mxCell>
        <mxCell id="d63WF_MDzuo1NfwLzAkS-32" value="fiction" style="text;html=1;align=center;verticalAlign=middle;resizable=0;points=[];autosize=1;strokeColor=none;fillColor=none;" vertex="1" parent="1">
          <mxGeometry x="560" y="485" width="50" height="30" as="geometry" />
        </mxCell>
        <mxCell id="d63WF_MDzuo1NfwLzAkS-34" value="romance" style="text;html=1;align=center;verticalAlign=middle;resizable=0;points=[];autosize=1;strokeColor=none;fillColor=none;" vertex="1" parent="1">
          <mxGeometry x="430" y="485" width="70" height="30" as="geometry" />
        </mxCell>
        <mxCell id="d63WF_MDzuo1NfwLzAkS-35" value="policier" style="text;html=1;align=center;verticalAlign=middle;resizable=0;points=[];autosize=1;strokeColor=none;fillColor=none;" vertex="1" parent="1">
          <mxGeometry x="285" y="485" width="60" height="30" as="geometry" />
        </mxCell>
        <mxCell id="d63WF_MDzuo1NfwLzAkS-36" value="Id (PK)" style="text;html=1;align=center;verticalAlign=middle;resizable=0;points=[];autosize=1;strokeColor=none;fillColor=none;" vertex="1" parent="1">
          <mxGeometry x="135" y="485" width="60" height="30" as="geometry" />
        </mxCell>
        <mxCell id="d63WF_MDzuo1NfwLzAkS-37" value="NomDuLivre_Id" style="text;html=1;align=center;verticalAlign=middle;resizable=0;points=[];autosize=1;strokeColor=none;fillColor=none;" vertex="1" parent="1">
          <mxGeometry x="480" y="225" width="110" height="30" as="geometry" />
        </mxCell>
        <mxCell id="d63WF_MDzuo1NfwLzAkS-38" value="&lt;span style=&quot;color: rgba(0, 0, 0, 0); font-family: monospace; font-size: 0px; text-align: start; text-wrap-mode: nowrap;&quot;&gt;%3CmxGraphModel%3E%3Croot%3E%3CmxCell%20id%3D%220%22%2F%3E%3CmxCell%20id%3D%221%22%20parent%3D%220%22%2F%3E%3CmxCell%20id%3D%222%22%20value%3D%22CATEGORIES%22%20style%3D%22text%3Bhtml%3D1%3Balign%3Dcenter%3BverticalAlign%3Dmiddle%3Bresizable%3D0%3Bpoints%3D%5B%5D%3Bautosize%3D1%3BstrokeColor%3Dnone%3BfillColor%3Dnone%3B%22%20vertex%3D%221%22%20parent%3D%221%22%3E%3CmxGeometry%20y%3D%22515%22%20width%3D%22100%22%20height%3D%2230%22%20as%3D%22geometry%22%2F%3E%3C%2FmxCell%3E%3C%2Froot%3E%3C%2FmxGraphModel%3E&lt;/span&gt;" style="rounded=0;whiteSpace=wrap;html=1;" vertex="1" parent="1">
          <mxGeometry x="-10" y="610" width="810" height="100" as="geometry" />
        </mxCell>
        <mxCell id="d63WF_MDzuo1NfwLzAkS-39" value="EXEMPLAIRES" style="text;html=1;align=center;verticalAlign=middle;resizable=0;points=[];autosize=1;strokeColor=none;fillColor=none;" vertex="1" parent="1">
          <mxGeometry y="645" width="110" height="30" as="geometry" />
        </mxCell>
        <mxCell id="d63WF_MDzuo1NfwLzAkS-40" value="Id (PK)&amp;nbsp;" style="text;html=1;align=center;verticalAlign=middle;resizable=0;points=[];autosize=1;strokeColor=none;fillColor=none;" vertex="1" parent="1">
          <mxGeometry x="135" y="615" width="60" height="30" as="geometry" />
        </mxCell>
        <mxCell id="d63WF_MDzuo1NfwLzAkS-41" value="NomDuLivre_id" style="text;html=1;align=center;verticalAlign=middle;resizable=0;points=[];autosize=1;strokeColor=none;fillColor=none;" vertex="1" parent="1">
          <mxGeometry x="250" y="615" width="110" height="30" as="geometry" />
        </mxCell>
        <mxCell id="d63WF_MDzuo1NfwLzAkS-42" value="categories_id (FK)" style="text;html=1;align=center;verticalAlign=middle;resizable=0;points=[];autosize=1;strokeColor=none;fillColor=none;" vertex="1" parent="1">
          <mxGeometry x="650" y="485" width="120" height="30" as="geometry" />
        </mxCell>
        <mxCell id="d63WF_MDzuo1NfwLzAkS-43" value="categories_id&amp;nbsp;" style="text;html=1;align=center;verticalAlign=middle;resizable=0;points=[];autosize=1;strokeColor=none;fillColor=none;" vertex="1" parent="1">
          <mxGeometry x="424" y="615" width="100" height="30" as="geometry" />
        </mxCell>
        <mxCell id="d63WF_MDzuo1NfwLzAkS-44" value="auteurs_id" style="text;html=1;align=center;verticalAlign=middle;resizable=0;points=[];autosize=1;strokeColor=none;fillColor=none;" vertex="1" parent="1">
          <mxGeometry x="580" y="615" width="80" height="30" as="geometry" />
        </mxCell>
        <mxCell id="d63WF_MDzuo1NfwLzAkS-45" value="auteur_id(FK)" style="text;html=1;align=center;verticalAlign=middle;resizable=0;points=[];autosize=1;strokeColor=none;fillColor=none;" vertex="1" parent="1">
          <mxGeometry x="500" y="360" width="100" height="30" as="geometry" />
        </mxCell>
        <mxCell id="d63WF_MDzuo1NfwLzAkS-46" value="emprunts_id (FK)" style="text;html=1;align=center;verticalAlign=middle;resizable=0;points=[];autosize=1;strokeColor=none;fillColor=none;" vertex="1" parent="1">
          <mxGeometry x="600" y="225" width="120" height="30" as="geometry" />
        </mxCell>
        <mxCell id="d63WF_MDzuo1NfwLzAkS-50" value="&lt;span style=&quot;color: rgba(0, 0, 0, 0); font-family: monospace; font-size: 0px; text-align: start; text-wrap-mode: nowrap;&quot;&gt;%3CmxGraphModel%3E%3Croot%3E%3CmxCell%20id%3D%220%22%2F%3E%3CmxCell%20id%3D%221%22%20parent%3D%220%22%2F%3E%3CmxCell%20id%3D%222%22%20value%3D%22CATEGORIES%22%20style%3D%22text%3Bhtml%3D1%3Balign%3Dcenter%3BverticalAlign%3Dmiddle%3Bresizable%3D0%3Bpoints%3D%5B%5D%3Bautosize%3D1%3BstrokeColor%3Dnone%3BfillColor%3Dnone%3B%22%20vertex%3D%221%22%20parent%3D%221%22%3E%3CmxGeometry%20y%3D%22515%22%20width%3D%22100%22%20height%3D%2230%22%20as%3D%22geometry%22%2F%3E%3C%2FmxCell%3E%3C%2Froot%3E%3C%2FmxGraphModel%3E&lt;/span&gt;" style="rounded=0;whiteSpace=wrap;html=1;" vertex="1" parent="1">
          <mxGeometry x="-10" y="740" width="810" height="100" as="geometry" />
        </mxCell>
        <mxCell id="d63WF_MDzuo1NfwLzAkS-51" value="USERS" style="text;html=1;align=center;verticalAlign=middle;resizable=0;points=[];autosize=1;strokeColor=none;fillColor=none;" vertex="1" parent="1">
          <mxGeometry x="30" y="775" width="60" height="30" as="geometry" />
        </mxCell>
        <mxCell id="d63WF_MDzuo1NfwLzAkS-52" value="Id (PK)" style="text;html=1;align=center;verticalAlign=middle;resizable=0;points=[];autosize=1;strokeColor=none;fillColor=none;" vertex="1" parent="1">
          <mxGeometry x="125" y="745" width="60" height="30" as="geometry" />
        </mxCell>
        <mxCell id="d63WF_MDzuo1NfwLzAkS-53" value="name" style="text;html=1;align=center;verticalAlign=middle;resizable=0;points=[];autosize=1;strokeColor=none;fillColor=none;" vertex="1" parent="1">
          <mxGeometry x="255" y="745" width="50" height="30" as="geometry" />
        </mxCell>
        <mxCell id="d63WF_MDzuo1NfwLzAkS-54" value="user_id (FK)" style="text;html=1;align=center;verticalAlign=middle;resizable=0;points=[];autosize=1;strokeColor=none;fillColor=none;" vertex="1" parent="1">
          <mxGeometry x="470" y="742" width="90" height="30" as="geometry" />
        </mxCell>
        <mxCell id="d63WF_MDzuo1NfwLzAkS-55" value="email" style="text;html=1;align=center;verticalAlign=middle;resizable=0;points=[];autosize=1;strokeColor=none;fillColor=none;" vertex="1" parent="1">
          <mxGeometry x="375" y="745" width="50" height="30" as="geometry" />
        </mxCell>
        <mxCell id="d63WF_MDzuo1NfwLzAkS-56" value="users_id" style="text;html=1;align=center;verticalAlign=middle;resizable=0;points=[];autosize=1;strokeColor=none;fillColor=none;" vertex="1" parent="1">
          <mxGeometry x="720" y="225" width="70" height="30" as="geometry" />
        </mxCell>
      </root>
    </mxGraphModel>
  </diagram>
</mxfile>
